<mxfile host="app.diagrams.net" agent="Mozilla/5.0 (Windows NT 10.0; Win64; x64) AppleWebKit/537.36 (KHTML, like Gecko) Chrome/132.0.0.0 Safari/537.36" version="26.0.10">
  <diagram name="Página-1" id="rM5SwYdUkmEwpUAeZdGa">
    <mxGraphModel dx="1134" dy="986" grid="1" gridSize="10" guides="1" tooltips="1" connect="1" arrows="1" fold="1" page="1" pageScale="1" pageWidth="827" pageHeight="1169" math="0" shadow="0">
      <root>
        <mxCell id="0" />
        <mxCell id="1" parent="0" />
        <mxCell id="h9gJ-d5TG9ByYGfzgWI7-11" value="" style="edgeStyle=orthogonalEdgeStyle;rounded=0;orthogonalLoop=1;jettySize=auto;html=1;" edge="1" parent="1" source="h9gJ-d5TG9ByYGfzgWI7-1" target="h9gJ-d5TG9ByYGfzgWI7-5">
          <mxGeometry relative="1" as="geometry" />
        </mxCell>
        <mxCell id="h9gJ-d5TG9ByYGfzgWI7-1" value="&lt;font style=&quot;font-size: 18px;&quot;&gt;&lt;b&gt;Inicialização&lt;/b&gt;&lt;/font&gt;" style="rounded=0;whiteSpace=wrap;html=1;" vertex="1" parent="1">
          <mxGeometry x="230" y="80" width="120" height="60" as="geometry" />
        </mxCell>
        <mxCell id="h9gJ-d5TG9ByYGfzgWI7-14" value="" style="edgeStyle=orthogonalEdgeStyle;rounded=0;orthogonalLoop=1;jettySize=auto;html=1;" edge="1" parent="1" source="h9gJ-d5TG9ByYGfzgWI7-2" target="h9gJ-d5TG9ByYGfzgWI7-3">
          <mxGeometry relative="1" as="geometry" />
        </mxCell>
        <mxCell id="h9gJ-d5TG9ByYGfzgWI7-2" value="Seta a uart do display" style="rounded=1;whiteSpace=wrap;html=1;" vertex="1" parent="1">
          <mxGeometry x="230" y="380" width="120" height="60" as="geometry" />
        </mxCell>
        <mxCell id="h9gJ-d5TG9ByYGfzgWI7-15" value="" style="edgeStyle=orthogonalEdgeStyle;rounded=0;orthogonalLoop=1;jettySize=auto;html=1;" edge="1" parent="1" source="h9gJ-d5TG9ByYGfzgWI7-3" target="h9gJ-d5TG9ByYGfzgWI7-8">
          <mxGeometry relative="1" as="geometry" />
        </mxCell>
        <mxCell id="h9gJ-d5TG9ByYGfzgWI7-3" value="Seta a uart de debug" style="rounded=1;whiteSpace=wrap;html=1;" vertex="1" parent="1">
          <mxGeometry x="230" y="480" width="120" height="60" as="geometry" />
        </mxCell>
        <mxCell id="h9gJ-d5TG9ByYGfzgWI7-18" value="" style="edgeStyle=orthogonalEdgeStyle;rounded=0;orthogonalLoop=1;jettySize=auto;html=1;" edge="1" parent="1" source="h9gJ-d5TG9ByYGfzgWI7-4" target="h9gJ-d5TG9ByYGfzgWI7-7">
          <mxGeometry relative="1" as="geometry" />
        </mxCell>
        <mxCell id="h9gJ-d5TG9ByYGfzgWI7-4" value="Primeira leitura (tensão)" style="rounded=1;whiteSpace=wrap;html=1;" vertex="1" parent="1">
          <mxGeometry x="230" y="780" width="120" height="60" as="geometry" />
        </mxCell>
        <mxCell id="h9gJ-d5TG9ByYGfzgWI7-12" value="" style="edgeStyle=orthogonalEdgeStyle;rounded=0;orthogonalLoop=1;jettySize=auto;html=1;" edge="1" parent="1" source="h9gJ-d5TG9ByYGfzgWI7-5" target="h9gJ-d5TG9ByYGfzgWI7-6">
          <mxGeometry relative="1" as="geometry" />
        </mxCell>
        <mxCell id="h9gJ-d5TG9ByYGfzgWI7-5" value="Inicializa as uarts" style="rounded=1;whiteSpace=wrap;html=1;" vertex="1" parent="1">
          <mxGeometry x="230" y="180" width="120" height="60" as="geometry" />
        </mxCell>
        <mxCell id="h9gJ-d5TG9ByYGfzgWI7-13" value="" style="edgeStyle=orthogonalEdgeStyle;rounded=0;orthogonalLoop=1;jettySize=auto;html=1;" edge="1" parent="1" source="h9gJ-d5TG9ByYGfzgWI7-6" target="h9gJ-d5TG9ByYGfzgWI7-2">
          <mxGeometry relative="1" as="geometry" />
        </mxCell>
        <mxCell id="h9gJ-d5TG9ByYGfzgWI7-6" value="Começa os timers" style="rounded=1;whiteSpace=wrap;html=1;" vertex="1" parent="1">
          <mxGeometry x="230" y="280" width="120" height="60" as="geometry" />
        </mxCell>
        <mxCell id="h9gJ-d5TG9ByYGfzgWI7-7" value="Aplicação inicializada" style="rounded=1;whiteSpace=wrap;html=1;" vertex="1" parent="1">
          <mxGeometry x="230" y="880" width="120" height="60" as="geometry" />
        </mxCell>
        <mxCell id="h9gJ-d5TG9ByYGfzgWI7-16" value="" style="edgeStyle=orthogonalEdgeStyle;rounded=0;orthogonalLoop=1;jettySize=auto;html=1;" edge="1" parent="1" source="h9gJ-d5TG9ByYGfzgWI7-8" target="h9gJ-d5TG9ByYGfzgWI7-9">
          <mxGeometry relative="1" as="geometry" />
        </mxCell>
        <mxCell id="h9gJ-d5TG9ByYGfzgWI7-8" value="Inicializa o modbus" style="rounded=1;whiteSpace=wrap;html=1;" vertex="1" parent="1">
          <mxGeometry x="230" y="580" width="120" height="60" as="geometry" />
        </mxCell>
        <mxCell id="h9gJ-d5TG9ByYGfzgWI7-17" value="" style="edgeStyle=orthogonalEdgeStyle;rounded=0;orthogonalLoop=1;jettySize=auto;html=1;" edge="1" parent="1" source="h9gJ-d5TG9ByYGfzgWI7-9" target="h9gJ-d5TG9ByYGfzgWI7-4">
          <mxGeometry relative="1" as="geometry" />
        </mxCell>
        <mxCell id="h9gJ-d5TG9ByYGfzgWI7-9" value="Habilita o modbus" style="rounded=1;whiteSpace=wrap;html=1;" vertex="1" parent="1">
          <mxGeometry x="230" y="680" width="120" height="60" as="geometry" />
        </mxCell>
        <mxCell id="h9gJ-d5TG9ByYGfzgWI7-21" value="" style="edgeStyle=orthogonalEdgeStyle;rounded=0;orthogonalLoop=1;jettySize=auto;html=1;" edge="1" parent="1" source="h9gJ-d5TG9ByYGfzgWI7-19" target="h9gJ-d5TG9ByYGfzgWI7-20">
          <mxGeometry relative="1" as="geometry" />
        </mxCell>
        <mxCell id="h9gJ-d5TG9ByYGfzgWI7-19" value="&lt;font style=&quot;font-size: 18px;&quot;&gt;&lt;b&gt;Polling&lt;/b&gt;&lt;/font&gt;" style="rounded=0;whiteSpace=wrap;html=1;" vertex="1" parent="1">
          <mxGeometry x="480" y="80" width="120" height="60" as="geometry" />
        </mxCell>
        <mxCell id="h9gJ-d5TG9ByYGfzgWI7-26" value="" style="edgeStyle=orthogonalEdgeStyle;rounded=0;orthogonalLoop=1;jettySize=auto;html=1;" edge="1" parent="1" source="h9gJ-d5TG9ByYGfzgWI7-20" target="h9gJ-d5TG9ByYGfzgWI7-22">
          <mxGeometry relative="1" as="geometry" />
        </mxCell>
        <mxCell id="h9gJ-d5TG9ByYGfzgWI7-20" value="Atualiza as leituras" style="rounded=1;whiteSpace=wrap;html=1;" vertex="1" parent="1">
          <mxGeometry x="480" y="180" width="120" height="60" as="geometry" />
        </mxCell>
        <mxCell id="h9gJ-d5TG9ByYGfzgWI7-27" value="" style="edgeStyle=orthogonalEdgeStyle;rounded=0;orthogonalLoop=1;jettySize=auto;html=1;" edge="1" parent="1" source="h9gJ-d5TG9ByYGfzgWI7-22" target="h9gJ-d5TG9ByYGfzgWI7-23">
          <mxGeometry relative="1" as="geometry" />
        </mxCell>
        <mxCell id="h9gJ-d5TG9ByYGfzgWI7-22" value="Verifica as mensagens do display" style="rounded=1;whiteSpace=wrap;html=1;" vertex="1" parent="1">
          <mxGeometry x="480" y="280" width="120" height="60" as="geometry" />
        </mxCell>
        <mxCell id="h9gJ-d5TG9ByYGfzgWI7-28" value="" style="edgeStyle=orthogonalEdgeStyle;rounded=0;orthogonalLoop=1;jettySize=auto;html=1;" edge="1" parent="1" source="h9gJ-d5TG9ByYGfzgWI7-23" target="h9gJ-d5TG9ByYGfzgWI7-24">
          <mxGeometry relative="1" as="geometry" />
        </mxCell>
        <mxCell id="h9gJ-d5TG9ByYGfzgWI7-23" value="Verifica as mensagens do debug" style="rounded=1;whiteSpace=wrap;html=1;" vertex="1" parent="1">
          <mxGeometry x="480" y="380" width="120" height="60" as="geometry" />
        </mxCell>
        <mxCell id="h9gJ-d5TG9ByYGfzgWI7-29" value="" style="edgeStyle=orthogonalEdgeStyle;rounded=0;orthogonalLoop=1;jettySize=auto;html=1;" edge="1" parent="1" source="h9gJ-d5TG9ByYGfzgWI7-24" target="h9gJ-d5TG9ByYGfzgWI7-25">
          <mxGeometry relative="1" as="geometry" />
        </mxCell>
        <mxCell id="h9gJ-d5TG9ByYGfzgWI7-24" value="Verifica as mensagens do modbus" style="rounded=1;whiteSpace=wrap;html=1;" vertex="1" parent="1">
          <mxGeometry x="480" y="480" width="120" height="60" as="geometry" />
        </mxCell>
        <mxCell id="h9gJ-d5TG9ByYGfzgWI7-25" value="Entra em sleep" style="rounded=1;whiteSpace=wrap;html=1;" vertex="1" parent="1">
          <mxGeometry x="480" y="580" width="120" height="60" as="geometry" />
        </mxCell>
        <mxCell id="h9gJ-d5TG9ByYGfzgWI7-46" value="" style="edgeStyle=orthogonalEdgeStyle;rounded=0;orthogonalLoop=1;jettySize=auto;html=1;" edge="1" parent="1" source="h9gJ-d5TG9ByYGfzgWI7-30" target="h9gJ-d5TG9ByYGfzgWI7-31">
          <mxGeometry relative="1" as="geometry" />
        </mxCell>
        <mxCell id="h9gJ-d5TG9ByYGfzgWI7-30" value="&lt;font style=&quot;font-size: 18px;&quot;&gt;&lt;b&gt;Atualização das leituras&lt;/b&gt;&lt;/font&gt;" style="rounded=0;whiteSpace=wrap;html=1;" vertex="1" parent="1">
          <mxGeometry x="1010" y="80" width="120" height="60" as="geometry" />
        </mxCell>
        <mxCell id="h9gJ-d5TG9ByYGfzgWI7-34" value="" style="edgeStyle=orthogonalEdgeStyle;rounded=0;orthogonalLoop=1;jettySize=auto;html=1;" edge="1" parent="1" source="h9gJ-d5TG9ByYGfzgWI7-31" target="h9gJ-d5TG9ByYGfzgWI7-33">
          <mxGeometry relative="1" as="geometry" />
        </mxCell>
        <mxCell id="h9gJ-d5TG9ByYGfzgWI7-35" value="N&lt;span style=&quot;background-color: light-dark(#ffffff, var(--ge-dark-color, #121212)); color: light-dark(rgb(0, 0, 0), rgb(255, 255, 255));&quot;&gt;ão&lt;/span&gt;" style="edgeLabel;html=1;align=center;verticalAlign=middle;resizable=0;points=[];" vertex="1" connectable="0" parent="h9gJ-d5TG9ByYGfzgWI7-34">
          <mxGeometry x="-0.025" y="-1" relative="1" as="geometry">
            <mxPoint y="-1" as="offset" />
          </mxGeometry>
        </mxCell>
        <mxCell id="h9gJ-d5TG9ByYGfzgWI7-45" value="" style="edgeStyle=orthogonalEdgeStyle;rounded=0;orthogonalLoop=1;jettySize=auto;html=1;" edge="1" parent="1" source="h9gJ-d5TG9ByYGfzgWI7-31" target="h9gJ-d5TG9ByYGfzgWI7-38">
          <mxGeometry relative="1" as="geometry" />
        </mxCell>
        <mxCell id="h9gJ-d5TG9ByYGfzgWI7-50" value="Sim" style="edgeLabel;html=1;align=center;verticalAlign=middle;resizable=0;points=[];" vertex="1" connectable="0" parent="h9gJ-d5TG9ByYGfzgWI7-45">
          <mxGeometry x="-0.25" y="-1" relative="1" as="geometry">
            <mxPoint as="offset" />
          </mxGeometry>
        </mxCell>
        <mxCell id="h9gJ-d5TG9ByYGfzgWI7-31" value="Passou 1 ms?" style="rhombus;whiteSpace=wrap;html=1;" vertex="1" parent="1">
          <mxGeometry x="1010" y="180" width="120" height="60" as="geometry" />
        </mxCell>
        <mxCell id="h9gJ-d5TG9ByYGfzgWI7-33" value="Retorna" style="rounded=1;whiteSpace=wrap;html=1;" vertex="1" parent="1">
          <mxGeometry x="1190" y="180" width="120" height="60" as="geometry" />
        </mxCell>
        <mxCell id="h9gJ-d5TG9ByYGfzgWI7-40" value="" style="edgeStyle=orthogonalEdgeStyle;rounded=0;orthogonalLoop=1;jettySize=auto;html=1;" edge="1" parent="1" source="h9gJ-d5TG9ByYGfzgWI7-38" target="h9gJ-d5TG9ByYGfzgWI7-39">
          <mxGeometry relative="1" as="geometry" />
        </mxCell>
        <mxCell id="h9gJ-d5TG9ByYGfzgWI7-41" value="Não" style="edgeLabel;html=1;align=center;verticalAlign=middle;resizable=0;points=[];" vertex="1" connectable="0" parent="h9gJ-d5TG9ByYGfzgWI7-40">
          <mxGeometry x="-0.1" y="2" relative="1" as="geometry">
            <mxPoint x="4" y="2" as="offset" />
          </mxGeometry>
        </mxCell>
        <mxCell id="h9gJ-d5TG9ByYGfzgWI7-52" value="" style="edgeStyle=orthogonalEdgeStyle;rounded=0;orthogonalLoop=1;jettySize=auto;html=1;entryX=0.5;entryY=0;entryDx=0;entryDy=0;" edge="1" parent="1" source="h9gJ-d5TG9ByYGfzgWI7-38" target="h9gJ-d5TG9ByYGfzgWI7-61">
          <mxGeometry relative="1" as="geometry">
            <mxPoint x="1070" y="380" as="targetPoint" />
          </mxGeometry>
        </mxCell>
        <mxCell id="h9gJ-d5TG9ByYGfzgWI7-53" value="Sim" style="edgeLabel;html=1;align=center;verticalAlign=middle;resizable=0;points=[];" vertex="1" connectable="0" parent="h9gJ-d5TG9ByYGfzgWI7-52">
          <mxGeometry x="-0.1" relative="1" as="geometry">
            <mxPoint as="offset" />
          </mxGeometry>
        </mxCell>
        <mxCell id="h9gJ-d5TG9ByYGfzgWI7-38" value="Leituras novas?" style="rhombus;whiteSpace=wrap;html=1;" vertex="1" parent="1">
          <mxGeometry x="1010" y="280" width="120" height="60" as="geometry" />
        </mxCell>
        <mxCell id="h9gJ-d5TG9ByYGfzgWI7-49" value="" style="edgeStyle=orthogonalEdgeStyle;rounded=0;orthogonalLoop=1;jettySize=auto;html=1;" edge="1" parent="1" source="h9gJ-d5TG9ByYGfzgWI7-39" target="h9gJ-d5TG9ByYGfzgWI7-48">
          <mxGeometry relative="1" as="geometry" />
        </mxCell>
        <mxCell id="h9gJ-d5TG9ByYGfzgWI7-57" value="Não" style="edgeLabel;html=1;align=center;verticalAlign=middle;resizable=0;points=[];" vertex="1" connectable="0" parent="h9gJ-d5TG9ByYGfzgWI7-49">
          <mxGeometry x="-0.05" y="1" relative="1" as="geometry">
            <mxPoint as="offset" />
          </mxGeometry>
        </mxCell>
        <mxCell id="h9gJ-d5TG9ByYGfzgWI7-55" value="" style="edgeStyle=orthogonalEdgeStyle;rounded=0;orthogonalLoop=1;jettySize=auto;html=1;" edge="1" parent="1" source="h9gJ-d5TG9ByYGfzgWI7-39" target="h9gJ-d5TG9ByYGfzgWI7-54">
          <mxGeometry relative="1" as="geometry" />
        </mxCell>
        <mxCell id="h9gJ-d5TG9ByYGfzgWI7-56" value="Sim" style="edgeLabel;html=1;align=center;verticalAlign=middle;resizable=0;points=[];" vertex="1" connectable="0" parent="h9gJ-d5TG9ByYGfzgWI7-55">
          <mxGeometry x="-0.25" y="-2" relative="1" as="geometry">
            <mxPoint as="offset" />
          </mxGeometry>
        </mxCell>
        <mxCell id="h9gJ-d5TG9ByYGfzgWI7-39" value="DMA livre?" style="rhombus;whiteSpace=wrap;html=1;" vertex="1" parent="1">
          <mxGeometry x="1190" y="280" width="120" height="60" as="geometry" />
        </mxCell>
        <mxCell id="h9gJ-d5TG9ByYGfzgWI7-48" value="Retorna" style="rounded=1;whiteSpace=wrap;html=1;" vertex="1" parent="1">
          <mxGeometry x="1371" y="280" width="120" height="60" as="geometry" />
        </mxCell>
        <mxCell id="h9gJ-d5TG9ByYGfzgWI7-58" style="edgeStyle=orthogonalEdgeStyle;rounded=0;orthogonalLoop=1;jettySize=auto;html=1;exitX=1;exitY=0.5;exitDx=0;exitDy=0;entryX=0.5;entryY=1;entryDx=0;entryDy=0;" edge="1" parent="1" source="h9gJ-d5TG9ByYGfzgWI7-54" target="h9gJ-d5TG9ByYGfzgWI7-48">
          <mxGeometry relative="1" as="geometry" />
        </mxCell>
        <mxCell id="h9gJ-d5TG9ByYGfzgWI7-54" value="Pede novas leituras do tipo diferente do anterior" style="rounded=1;whiteSpace=wrap;html=1;" vertex="1" parent="1">
          <mxGeometry x="1190" y="380" width="120" height="60" as="geometry" />
        </mxCell>
        <mxCell id="h9gJ-d5TG9ByYGfzgWI7-63" value="" style="edgeStyle=orthogonalEdgeStyle;rounded=0;orthogonalLoop=1;jettySize=auto;html=1;" edge="1" parent="1" source="h9gJ-d5TG9ByYGfzgWI7-61" target="h9gJ-d5TG9ByYGfzgWI7-62">
          <mxGeometry relative="1" as="geometry" />
        </mxCell>
        <mxCell id="h9gJ-d5TG9ByYGfzgWI7-61" value="Converte as leituras" style="rounded=1;whiteSpace=wrap;html=1;" vertex="1" parent="1">
          <mxGeometry x="1010" y="380" width="120" height="60" as="geometry" />
        </mxCell>
        <mxCell id="h9gJ-d5TG9ByYGfzgWI7-62" value="Envia para o display" style="rounded=1;whiteSpace=wrap;html=1;" vertex="1" parent="1">
          <mxGeometry x="1010" y="480" width="120" height="60" as="geometry" />
        </mxCell>
        <mxCell id="h9gJ-d5TG9ByYGfzgWI7-74" value="" style="edgeStyle=orthogonalEdgeStyle;rounded=0;orthogonalLoop=1;jettySize=auto;html=1;" edge="1" parent="1" source="h9gJ-d5TG9ByYGfzgWI7-64" target="h9gJ-d5TG9ByYGfzgWI7-65">
          <mxGeometry relative="1" as="geometry" />
        </mxCell>
        <mxCell id="h9gJ-d5TG9ByYGfzgWI7-64" value="&lt;font style=&quot;font-size: 18px;&quot;&gt;&lt;b&gt;Mensagens do display&lt;/b&gt;&lt;/font&gt;" style="rounded=0;whiteSpace=wrap;html=1;" vertex="1" parent="1">
          <mxGeometry x="1720" y="80" width="120" height="60" as="geometry" />
        </mxCell>
        <mxCell id="h9gJ-d5TG9ByYGfzgWI7-73" value="" style="edgeStyle=orthogonalEdgeStyle;rounded=0;orthogonalLoop=1;jettySize=auto;html=1;" edge="1" parent="1" source="h9gJ-d5TG9ByYGfzgWI7-65" target="h9gJ-d5TG9ByYGfzgWI7-67">
          <mxGeometry relative="1" as="geometry" />
        </mxCell>
        <mxCell id="h9gJ-d5TG9ByYGfzgWI7-65" value="Constrói a mensagem com os caracteres do buffer" style="rounded=1;whiteSpace=wrap;html=1;" vertex="1" parent="1">
          <mxGeometry x="1720" y="180" width="120" height="60" as="geometry" />
        </mxCell>
        <mxCell id="h9gJ-d5TG9ByYGfzgWI7-66" value="Trata a mensagem" style="rounded=1;whiteSpace=wrap;html=1;" vertex="1" parent="1">
          <mxGeometry x="1720" y="380" width="120" height="60" as="geometry" />
        </mxCell>
        <mxCell id="h9gJ-d5TG9ByYGfzgWI7-69" value="" style="edgeStyle=orthogonalEdgeStyle;rounded=0;orthogonalLoop=1;jettySize=auto;html=1;" edge="1" parent="1" source="h9gJ-d5TG9ByYGfzgWI7-67" target="h9gJ-d5TG9ByYGfzgWI7-68">
          <mxGeometry relative="1" as="geometry" />
        </mxCell>
        <mxCell id="h9gJ-d5TG9ByYGfzgWI7-70" value="Não" style="edgeLabel;html=1;align=center;verticalAlign=middle;resizable=0;points=[];" vertex="1" connectable="0" parent="h9gJ-d5TG9ByYGfzgWI7-69">
          <mxGeometry x="0.05" y="-1" relative="1" as="geometry">
            <mxPoint y="-1" as="offset" />
          </mxGeometry>
        </mxCell>
        <mxCell id="h9gJ-d5TG9ByYGfzgWI7-71" value="" style="edgeStyle=orthogonalEdgeStyle;rounded=0;orthogonalLoop=1;jettySize=auto;html=1;" edge="1" parent="1" source="h9gJ-d5TG9ByYGfzgWI7-67" target="h9gJ-d5TG9ByYGfzgWI7-66">
          <mxGeometry relative="1" as="geometry" />
        </mxCell>
        <mxCell id="h9gJ-d5TG9ByYGfzgWI7-72" value="Sim" style="edgeLabel;html=1;align=center;verticalAlign=middle;resizable=0;points=[];" vertex="1" connectable="0" parent="h9gJ-d5TG9ByYGfzgWI7-71">
          <mxGeometry x="-0.2" y="-1" relative="1" as="geometry">
            <mxPoint as="offset" />
          </mxGeometry>
        </mxCell>
        <mxCell id="h9gJ-d5TG9ByYGfzgWI7-67" value="Mensagem válida?" style="rhombus;whiteSpace=wrap;html=1;" vertex="1" parent="1">
          <mxGeometry x="1720" y="280" width="120" height="60" as="geometry" />
        </mxCell>
        <mxCell id="h9gJ-d5TG9ByYGfzgWI7-68" value="Retorna" style="rounded=1;whiteSpace=wrap;html=1;" vertex="1" parent="1">
          <mxGeometry x="1900" y="280" width="120" height="60" as="geometry" />
        </mxCell>
        <mxCell id="h9gJ-d5TG9ByYGfzgWI7-75" value="" style="edgeStyle=orthogonalEdgeStyle;rounded=0;orthogonalLoop=1;jettySize=auto;html=1;" edge="1" parent="1" source="h9gJ-d5TG9ByYGfzgWI7-76" target="h9gJ-d5TG9ByYGfzgWI7-77">
          <mxGeometry relative="1" as="geometry" />
        </mxCell>
        <mxCell id="h9gJ-d5TG9ByYGfzgWI7-76" value="&lt;font style=&quot;font-size: 18px;&quot;&gt;&lt;b&gt;Mensagens do debug (coletora)&lt;/b&gt;&lt;/font&gt;" style="rounded=0;whiteSpace=wrap;html=1;" vertex="1" parent="1">
          <mxGeometry x="2120" y="80" width="120" height="60" as="geometry" />
        </mxCell>
        <mxCell id="h9gJ-d5TG9ByYGfzgWI7-82" value="" style="edgeStyle=orthogonalEdgeStyle;rounded=0;orthogonalLoop=1;jettySize=auto;html=1;" edge="1" parent="1" source="h9gJ-d5TG9ByYGfzgWI7-77" target="h9gJ-d5TG9ByYGfzgWI7-78">
          <mxGeometry relative="1" as="geometry" />
        </mxCell>
        <mxCell id="h9gJ-d5TG9ByYGfzgWI7-77" value="Constrói a mensagem com os caracteres do buffer" style="rounded=1;whiteSpace=wrap;html=1;" vertex="1" parent="1">
          <mxGeometry x="2120" y="180" width="120" height="60" as="geometry" />
        </mxCell>
        <mxCell id="h9gJ-d5TG9ByYGfzgWI7-80" value="" style="edgeStyle=orthogonalEdgeStyle;rounded=0;orthogonalLoop=1;jettySize=auto;html=1;" edge="1" parent="1" source="h9gJ-d5TG9ByYGfzgWI7-78" target="h9gJ-d5TG9ByYGfzgWI7-79">
          <mxGeometry relative="1" as="geometry" />
        </mxCell>
        <mxCell id="h9gJ-d5TG9ByYGfzgWI7-81" value="Não" style="edgeLabel;html=1;align=center;verticalAlign=middle;resizable=0;points=[];" vertex="1" connectable="0" parent="h9gJ-d5TG9ByYGfzgWI7-80">
          <mxGeometry x="-0.025" y="-1" relative="1" as="geometry">
            <mxPoint as="offset" />
          </mxGeometry>
        </mxCell>
        <mxCell id="h9gJ-d5TG9ByYGfzgWI7-84" value="" style="edgeStyle=orthogonalEdgeStyle;rounded=0;orthogonalLoop=1;jettySize=auto;html=1;" edge="1" parent="1" source="h9gJ-d5TG9ByYGfzgWI7-78" target="h9gJ-d5TG9ByYGfzgWI7-83">
          <mxGeometry relative="1" as="geometry" />
        </mxCell>
        <mxCell id="h9gJ-d5TG9ByYGfzgWI7-85" value="Sim" style="edgeLabel;html=1;align=center;verticalAlign=middle;resizable=0;points=[];" vertex="1" connectable="0" parent="h9gJ-d5TG9ByYGfzgWI7-84">
          <mxGeometry x="-0.25" relative="1" as="geometry">
            <mxPoint as="offset" />
          </mxGeometry>
        </mxCell>
        <mxCell id="h9gJ-d5TG9ByYGfzgWI7-78" value="Requisição completa?" style="rhombus;whiteSpace=wrap;html=1;" vertex="1" parent="1">
          <mxGeometry x="2120" y="280" width="120" height="60" as="geometry" />
        </mxCell>
        <mxCell id="h9gJ-d5TG9ByYGfzgWI7-79" value="Retorna" style="rounded=1;whiteSpace=wrap;html=1;" vertex="1" parent="1">
          <mxGeometry x="2300" y="280" width="120" height="60" as="geometry" />
        </mxCell>
        <mxCell id="h9gJ-d5TG9ByYGfzgWI7-83" value="Envia a resposta" style="rounded=1;whiteSpace=wrap;html=1;" vertex="1" parent="1">
          <mxGeometry x="2120" y="380" width="120" height="60" as="geometry" />
        </mxCell>
        <mxCell id="h9gJ-d5TG9ByYGfzgWI7-98" value="" style="edgeStyle=orthogonalEdgeStyle;rounded=0;orthogonalLoop=1;jettySize=auto;html=1;" edge="1" parent="1" source="h9gJ-d5TG9ByYGfzgWI7-87" target="h9gJ-d5TG9ByYGfzgWI7-89">
          <mxGeometry relative="1" as="geometry" />
        </mxCell>
        <mxCell id="h9gJ-d5TG9ByYGfzgWI7-87" value="&lt;font style=&quot;font-size: 18px;&quot;&gt;&lt;b&gt;Mensagens do modbus&lt;/b&gt;&lt;/font&gt;" style="rounded=0;whiteSpace=wrap;html=1;" vertex="1" parent="1">
          <mxGeometry x="1720" y="480" width="120" height="60" as="geometry" />
        </mxCell>
        <mxCell id="h9gJ-d5TG9ByYGfzgWI7-110" value="" style="edgeStyle=orthogonalEdgeStyle;rounded=0;orthogonalLoop=1;jettySize=auto;html=1;" edge="1" parent="1" source="h9gJ-d5TG9ByYGfzgWI7-88" target="h9gJ-d5TG9ByYGfzgWI7-100">
          <mxGeometry relative="1" as="geometry" />
        </mxCell>
        <mxCell id="h9gJ-d5TG9ByYGfzgWI7-88" value="Constrói a mensagem com os caracteres do buffer" style="rounded=1;whiteSpace=wrap;html=1;" vertex="1" parent="1">
          <mxGeometry x="1720" y="780" width="120" height="60" as="geometry" />
        </mxCell>
        <mxCell id="h9gJ-d5TG9ByYGfzgWI7-91" value="" style="edgeStyle=orthogonalEdgeStyle;rounded=0;orthogonalLoop=1;jettySize=auto;html=1;" edge="1" parent="1" source="h9gJ-d5TG9ByYGfzgWI7-89" target="h9gJ-d5TG9ByYGfzgWI7-90">
          <mxGeometry relative="1" as="geometry" />
        </mxCell>
        <mxCell id="h9gJ-d5TG9ByYGfzgWI7-92" value="Não" style="edgeLabel;html=1;align=center;verticalAlign=middle;resizable=0;points=[];" vertex="1" connectable="0" parent="h9gJ-d5TG9ByYGfzgWI7-91">
          <mxGeometry x="0.025" y="1" relative="1" as="geometry">
            <mxPoint as="offset" />
          </mxGeometry>
        </mxCell>
        <mxCell id="h9gJ-d5TG9ByYGfzgWI7-108" value="" style="edgeStyle=orthogonalEdgeStyle;rounded=0;orthogonalLoop=1;jettySize=auto;html=1;" edge="1" parent="1" source="h9gJ-d5TG9ByYGfzgWI7-89" target="h9gJ-d5TG9ByYGfzgWI7-94">
          <mxGeometry relative="1" as="geometry" />
        </mxCell>
        <mxCell id="h9gJ-d5TG9ByYGfzgWI7-113" value="Sim" style="edgeLabel;html=1;align=center;verticalAlign=middle;resizable=0;points=[];" vertex="1" connectable="0" parent="h9gJ-d5TG9ByYGfzgWI7-108">
          <mxGeometry x="-0.05" y="1" relative="1" as="geometry">
            <mxPoint x="-1" as="offset" />
          </mxGeometry>
        </mxCell>
        <mxCell id="h9gJ-d5TG9ByYGfzgWI7-89" value="Modbus&lt;div&gt;habilitado?&lt;/div&gt;" style="rhombus;whiteSpace=wrap;html=1;" vertex="1" parent="1">
          <mxGeometry x="1720" y="580" width="120" height="60" as="geometry" />
        </mxCell>
        <mxCell id="h9gJ-d5TG9ByYGfzgWI7-90" value="Retorna" style="rounded=1;whiteSpace=wrap;html=1;" vertex="1" parent="1">
          <mxGeometry x="1900" y="580" width="120" height="60" as="geometry" />
        </mxCell>
        <mxCell id="h9gJ-d5TG9ByYGfzgWI7-96" value="" style="edgeStyle=orthogonalEdgeStyle;rounded=0;orthogonalLoop=1;jettySize=auto;html=1;" edge="1" parent="1" source="h9gJ-d5TG9ByYGfzgWI7-94" target="h9gJ-d5TG9ByYGfzgWI7-95">
          <mxGeometry relative="1" as="geometry" />
        </mxCell>
        <mxCell id="h9gJ-d5TG9ByYGfzgWI7-97" value="Sim" style="edgeLabel;html=1;align=center;verticalAlign=middle;resizable=0;points=[];" vertex="1" connectable="0" parent="h9gJ-d5TG9ByYGfzgWI7-96">
          <mxGeometry x="0.05" y="2" relative="1" as="geometry">
            <mxPoint as="offset" />
          </mxGeometry>
        </mxCell>
        <mxCell id="h9gJ-d5TG9ByYGfzgWI7-109" value="" style="edgeStyle=orthogonalEdgeStyle;rounded=0;orthogonalLoop=1;jettySize=auto;html=1;" edge="1" parent="1" source="h9gJ-d5TG9ByYGfzgWI7-94" target="h9gJ-d5TG9ByYGfzgWI7-88">
          <mxGeometry relative="1" as="geometry" />
        </mxCell>
        <mxCell id="h9gJ-d5TG9ByYGfzgWI7-114" value="Sim" style="edgeLabel;html=1;align=center;verticalAlign=middle;resizable=0;points=[];" vertex="1" connectable="0" parent="h9gJ-d5TG9ByYGfzgWI7-109">
          <mxGeometry x="-0.25" y="2" relative="1" as="geometry">
            <mxPoint x="-2" y="5" as="offset" />
          </mxGeometry>
        </mxCell>
        <mxCell id="h9gJ-d5TG9ByYGfzgWI7-94" value="Timeout da mensagem?" style="rhombus;whiteSpace=wrap;html=1;" vertex="1" parent="1">
          <mxGeometry x="1720" y="680" width="120" height="60" as="geometry" />
        </mxCell>
        <mxCell id="h9gJ-d5TG9ByYGfzgWI7-105" value="" style="edgeStyle=orthogonalEdgeStyle;rounded=0;orthogonalLoop=1;jettySize=auto;html=1;" edge="1" parent="1" source="h9gJ-d5TG9ByYGfzgWI7-95" target="h9gJ-d5TG9ByYGfzgWI7-104">
          <mxGeometry relative="1" as="geometry" />
        </mxCell>
        <mxCell id="h9gJ-d5TG9ByYGfzgWI7-95" value="Reseta a mensagem" style="rounded=1;whiteSpace=wrap;html=1;" vertex="1" parent="1">
          <mxGeometry x="1900" y="680" width="120" height="60" as="geometry" />
        </mxCell>
        <mxCell id="h9gJ-d5TG9ByYGfzgWI7-102" value="" style="edgeStyle=orthogonalEdgeStyle;rounded=0;orthogonalLoop=1;jettySize=auto;html=1;" edge="1" parent="1" source="h9gJ-d5TG9ByYGfzgWI7-100" target="h9gJ-d5TG9ByYGfzgWI7-101">
          <mxGeometry relative="1" as="geometry" />
        </mxCell>
        <mxCell id="h9gJ-d5TG9ByYGfzgWI7-103" value="Não" style="edgeLabel;html=1;align=center;verticalAlign=middle;resizable=0;points=[];" vertex="1" connectable="0" parent="h9gJ-d5TG9ByYGfzgWI7-102">
          <mxGeometry x="0.025" y="1" relative="1" as="geometry">
            <mxPoint as="offset" />
          </mxGeometry>
        </mxCell>
        <mxCell id="h9gJ-d5TG9ByYGfzgWI7-111" value="" style="edgeStyle=orthogonalEdgeStyle;rounded=0;orthogonalLoop=1;jettySize=auto;html=1;" edge="1" parent="1" source="h9gJ-d5TG9ByYGfzgWI7-100" target="h9gJ-d5TG9ByYGfzgWI7-106">
          <mxGeometry relative="1" as="geometry" />
        </mxCell>
        <mxCell id="h9gJ-d5TG9ByYGfzgWI7-116" value="Sim" style="edgeLabel;html=1;align=center;verticalAlign=middle;resizable=0;points=[];" vertex="1" connectable="0" parent="h9gJ-d5TG9ByYGfzgWI7-111">
          <mxGeometry x="-0.25" relative="1" as="geometry">
            <mxPoint as="offset" />
          </mxGeometry>
        </mxCell>
        <mxCell id="h9gJ-d5TG9ByYGfzgWI7-100" value="CRC válido?" style="rhombus;whiteSpace=wrap;html=1;" vertex="1" parent="1">
          <mxGeometry x="1720" y="880" width="120" height="60" as="geometry" />
        </mxCell>
        <mxCell id="h9gJ-d5TG9ByYGfzgWI7-101" value="Retorna" style="rounded=1;whiteSpace=wrap;html=1;" vertex="1" parent="1">
          <mxGeometry x="1920" y="880" width="120" height="60" as="geometry" />
        </mxCell>
        <mxCell id="h9gJ-d5TG9ByYGfzgWI7-104" value="Retorna" style="rounded=1;whiteSpace=wrap;html=1;" vertex="1" parent="1">
          <mxGeometry x="2080" y="680" width="120" height="60" as="geometry" />
        </mxCell>
        <mxCell id="h9gJ-d5TG9ByYGfzgWI7-112" value="" style="edgeStyle=orthogonalEdgeStyle;rounded=0;orthogonalLoop=1;jettySize=auto;html=1;" edge="1" parent="1" source="h9gJ-d5TG9ByYGfzgWI7-106" target="h9gJ-d5TG9ByYGfzgWI7-107">
          <mxGeometry relative="1" as="geometry" />
        </mxCell>
        <mxCell id="h9gJ-d5TG9ByYGfzgWI7-106" value="Trata a mensagem" style="rounded=1;whiteSpace=wrap;html=1;" vertex="1" parent="1">
          <mxGeometry x="1720" y="980" width="120" height="60" as="geometry" />
        </mxCell>
        <mxCell id="h9gJ-d5TG9ByYGfzgWI7-107" value="Reseta a mensagem" style="rounded=1;whiteSpace=wrap;html=1;" vertex="1" parent="1">
          <mxGeometry x="1720" y="1080" width="120" height="60" as="geometry" />
        </mxCell>
        <mxCell id="h9gJ-d5TG9ByYGfzgWI7-117" value="Rotina Principal" style="text;strokeColor=none;fillColor=none;html=1;fontSize=24;fontStyle=1;verticalAlign=middle;align=center;" vertex="1" parent="1">
          <mxGeometry x="312" y="20" width="204" height="40" as="geometry" />
        </mxCell>
        <mxCell id="h9gJ-d5TG9ByYGfzgWI7-118" value="Leituras ADC" style="text;strokeColor=none;fillColor=none;html=1;fontSize=24;fontStyle=1;verticalAlign=middle;align=center;" vertex="1" parent="1">
          <mxGeometry x="1139" y="20" width="204" height="40" as="geometry" />
        </mxCell>
        <mxCell id="h9gJ-d5TG9ByYGfzgWI7-119" value="Mensagens da Uart" style="text;strokeColor=none;fillColor=none;html=1;fontSize=24;fontStyle=1;verticalAlign=middle;align=center;" vertex="1" parent="1">
          <mxGeometry x="1948" y="20" width="239" height="40" as="geometry" />
        </mxCell>
      </root>
    </mxGraphModel>
  </diagram>
</mxfile>
